<mxfile host="app.diagrams.net" agent="Mozilla/5.0 (Windows NT 10.0; Win64; x64) AppleWebKit/537.36 (KHTML, like Gecko) Chrome/140.0.0.0 Safari/537.36" version="28.2.0">
  <diagram name="Página-1" id="ZmiVusArg0eAbAJM250A">
    <mxGraphModel dx="2084" dy="1054" grid="1" gridSize="10" guides="1" tooltips="1" connect="1" arrows="1" fold="1" page="1" pageScale="1" pageWidth="827" pageHeight="1169" math="0" shadow="0">
      <root>
        <mxCell id="0" />
        <mxCell id="1" parent="0" />
        <mxCell id="7BSrLb9yEdah-kjwerx5-20" style="edgeStyle=orthogonalEdgeStyle;rounded=0;orthogonalLoop=1;jettySize=auto;html=1;exitX=0.5;exitY=0.5;exitDx=0;exitDy=0;exitPerimeter=0;entryX=0;entryY=0.5;entryDx=0;entryDy=0;" edge="1" parent="1" source="7BSrLb9yEdah-kjwerx5-21" target="7BSrLb9yEdah-kjwerx5-22">
          <mxGeometry relative="1" as="geometry" />
        </mxCell>
        <mxCell id="7BSrLb9yEdah-kjwerx5-21" value="MOTORISTA" style="shape=umlActor;verticalLabelPosition=bottom;verticalAlign=top;html=1;outlineConnect=0;" vertex="1" parent="1">
          <mxGeometry x="210" y="570" width="40" height="80" as="geometry" />
        </mxCell>
        <mxCell id="7BSrLb9yEdah-kjwerx5-22" value="AGENDAR CARGA&amp;nbsp;" style="ellipse;whiteSpace=wrap;html=1;" vertex="1" parent="1">
          <mxGeometry x="520" y="670" width="120" height="80" as="geometry" />
        </mxCell>
        <mxCell id="7BSrLb9yEdah-kjwerx5-23" value="Ler nota Fiscal&lt;div&gt;&lt;br&gt;&lt;/div&gt;" style="ellipse;whiteSpace=wrap;html=1;" vertex="1" parent="1">
          <mxGeometry x="1150" y="530" width="120" height="80" as="geometry" />
        </mxCell>
        <mxCell id="7BSrLb9yEdah-kjwerx5-24" value="Selecionar Horário&lt;div&gt;&lt;br&gt;&lt;div&gt;&lt;br&gt;&lt;/div&gt;&lt;/div&gt;" style="ellipse;whiteSpace=wrap;html=1;" vertex="1" parent="1">
          <mxGeometry x="1500" y="570" width="120" height="80" as="geometry" />
        </mxCell>
        <mxCell id="7BSrLb9yEdah-kjwerx5-25" value="Mensagem de confirmação" style="ellipse;whiteSpace=wrap;html=1;" vertex="1" parent="1">
          <mxGeometry x="1810" y="530" width="120" height="80" as="geometry" />
        </mxCell>
        <mxCell id="7BSrLb9yEdah-kjwerx5-26" value="Visualização do agendamento" style="ellipse;whiteSpace=wrap;html=1;" vertex="1" parent="1">
          <mxGeometry x="2100" y="500" width="120" height="80" as="geometry" />
        </mxCell>
        <mxCell id="7BSrLb9yEdah-kjwerx5-27" style="edgeStyle=orthogonalEdgeStyle;rounded=0;orthogonalLoop=1;jettySize=auto;html=1;" edge="1" parent="1" source="7BSrLb9yEdah-kjwerx5-28" target="7BSrLb9yEdah-kjwerx5-22">
          <mxGeometry relative="1" as="geometry">
            <mxPoint x="2340" y="710" as="sourcePoint" />
          </mxGeometry>
        </mxCell>
        <mxCell id="7BSrLb9yEdah-kjwerx5-28" value="ADM" style="shape=umlActor;verticalLabelPosition=bottom;verticalAlign=top;html=1;outlineConnect=0;" vertex="1" parent="1">
          <mxGeometry x="170" y="830" width="40" height="80" as="geometry" />
        </mxCell>
        <mxCell id="7BSrLb9yEdah-kjwerx5-29" value="&amp;lt;&amp;lt;extend&lt;span style=&quot;background-color: transparent; color: light-dark(rgb(0, 0, 0), rgb(255, 255, 255));&quot;&gt;&amp;gt;&amp;gt;&lt;/span&gt;" style="html=1;verticalAlign=bottom;labelBackgroundColor=none;endArrow=open;endFill=0;dashed=1;rounded=0;exitX=1;exitY=0.5;exitDx=0;exitDy=0;" edge="1" parent="1" source="7BSrLb9yEdah-kjwerx5-23" target="7BSrLb9yEdah-kjwerx5-24">
          <mxGeometry width="160" relative="1" as="geometry">
            <mxPoint x="1580" y="730" as="sourcePoint" />
            <mxPoint x="1740" y="730" as="targetPoint" />
          </mxGeometry>
        </mxCell>
        <mxCell id="7BSrLb9yEdah-kjwerx5-30" value="&amp;lt;&amp;lt;include&amp;gt;&amp;gt;" style="html=1;verticalAlign=bottom;labelBackgroundColor=none;endArrow=open;endFill=0;dashed=1;rounded=0;exitX=1;exitY=0.5;exitDx=0;exitDy=0;entryX=0;entryY=1;entryDx=0;entryDy=0;" edge="1" parent="1" source="7BSrLb9yEdah-kjwerx5-24" target="7BSrLb9yEdah-kjwerx5-25">
          <mxGeometry x="-0.1207" y="13" width="160" relative="1" as="geometry">
            <mxPoint x="1600" y="610" as="sourcePoint" />
            <mxPoint x="1823.48" y="624.8799999999997" as="targetPoint" />
            <mxPoint as="offset" />
          </mxGeometry>
        </mxCell>
        <mxCell id="7BSrLb9yEdah-kjwerx5-31" value="&amp;lt;&amp;lt;include&amp;gt;&amp;gt;" style="html=1;verticalAlign=bottom;labelBackgroundColor=none;endArrow=open;endFill=0;dashed=1;rounded=0;exitX=1;exitY=0.5;exitDx=0;exitDy=0;entryX=0;entryY=0.5;entryDx=0;entryDy=0;" edge="1" parent="1" source="7BSrLb9yEdah-kjwerx5-25" target="7BSrLb9yEdah-kjwerx5-26">
          <mxGeometry width="160" relative="1" as="geometry">
            <mxPoint x="1870" y="660" as="sourcePoint" />
            <mxPoint x="2030" y="660" as="targetPoint" />
          </mxGeometry>
        </mxCell>
        <mxCell id="7BSrLb9yEdah-kjwerx5-32" value="CASO DE USO 02&lt;div&gt;&lt;br&gt;&lt;/div&gt;" style="rounded=1;whiteSpace=wrap;html=1;strokeWidth=3;fontSize=23;" vertex="1" parent="1">
          <mxGeometry x="780" y="190" width="1200" height="60" as="geometry" />
        </mxCell>
        <mxCell id="7BSrLb9yEdah-kjwerx5-33" value="Erro de leitura da nota&lt;div&gt;&lt;br&gt;&lt;/div&gt;" style="ellipse;whiteSpace=wrap;html=1;" vertex="1" parent="1">
          <mxGeometry x="1200" y="370" width="120" height="80" as="geometry" />
        </mxCell>
        <mxCell id="7BSrLb9yEdah-kjwerx5-34" value="&amp;lt;&amp;lt;extend&amp;gt;&amp;gt;" style="html=1;verticalAlign=bottom;labelBackgroundColor=none;endArrow=open;endFill=0;dashed=1;rounded=0;entryX=0;entryY=1;entryDx=0;entryDy=0;" edge="1" parent="1" source="7BSrLb9yEdah-kjwerx5-23" target="7BSrLb9yEdah-kjwerx5-33">
          <mxGeometry x="-0.4926" y="-12" width="160" relative="1" as="geometry">
            <mxPoint x="1190" y="499" as="sourcePoint" />
            <mxPoint x="1351" y="410" as="targetPoint" />
            <mxPoint as="offset" />
          </mxGeometry>
        </mxCell>
        <mxCell id="7BSrLb9yEdah-kjwerx5-35" value="&lt;div&gt;Selecionar Unidade&lt;/div&gt;&lt;div&gt;&lt;br&gt;&lt;/div&gt;" style="ellipse;whiteSpace=wrap;html=1;" vertex="1" parent="1">
          <mxGeometry x="780" y="540" width="120" height="80" as="geometry" />
        </mxCell>
        <mxCell id="7BSrLb9yEdah-kjwerx5-36" value="&amp;lt;&amp;lt;include&amp;gt;&amp;gt;" style="html=1;verticalAlign=bottom;labelBackgroundColor=none;endArrow=open;endFill=0;dashed=1;rounded=0;exitX=0.952;exitY=0.271;exitDx=0;exitDy=0;exitPerimeter=0;" edge="1" parent="1" source="7BSrLb9yEdah-kjwerx5-22" target="7BSrLb9yEdah-kjwerx5-35">
          <mxGeometry x="0.0435" y="7" width="160" relative="1" as="geometry">
            <mxPoint x="430" y="416" as="sourcePoint" />
            <mxPoint x="948" y="450" as="targetPoint" />
            <mxPoint as="offset" />
          </mxGeometry>
        </mxCell>
        <mxCell id="7BSrLb9yEdah-kjwerx5-37" value="&amp;lt;&amp;lt;include&amp;gt;&amp;gt;" style="html=1;verticalAlign=bottom;labelBackgroundColor=none;endArrow=open;endFill=0;dashed=1;rounded=0;entryX=0.024;entryY=0.732;entryDx=0;entryDy=0;entryPerimeter=0;" edge="1" parent="1" source="7BSrLb9yEdah-kjwerx5-35" target="7BSrLb9yEdah-kjwerx5-23">
          <mxGeometry x="0.0435" y="7" width="160" relative="1" as="geometry">
            <mxPoint x="1060" y="619" as="sourcePoint" />
            <mxPoint x="1246" y="610" as="targetPoint" />
            <mxPoint as="offset" />
          </mxGeometry>
        </mxCell>
        <mxCell id="7BSrLb9yEdah-kjwerx5-38" value="&lt;div&gt;Digitar código de barras&lt;/div&gt;&lt;div&gt;&lt;br&gt;&lt;/div&gt;" style="ellipse;whiteSpace=wrap;html=1;" vertex="1" parent="1">
          <mxGeometry x="1410" y="330" width="120" height="80" as="geometry" />
        </mxCell>
        <mxCell id="7BSrLb9yEdah-kjwerx5-39" value="&amp;lt;&amp;lt;include&lt;span style=&quot;background-color: transparent; color: light-dark(rgb(0, 0, 0), rgb(255, 255, 255));&quot;&gt;&amp;gt;&amp;gt;&lt;/span&gt;" style="html=1;verticalAlign=bottom;labelBackgroundColor=none;endArrow=open;endFill=0;dashed=1;rounded=0;exitX=0.936;exitY=0.686;exitDx=0;exitDy=0;exitPerimeter=0;" edge="1" parent="1" source="7BSrLb9yEdah-kjwerx5-33" target="7BSrLb9yEdah-kjwerx5-38">
          <mxGeometry x="-0.4926" y="-12" width="160" relative="1" as="geometry">
            <mxPoint x="1381" y="543" as="sourcePoint" />
            <mxPoint x="1340" y="400" as="targetPoint" />
            <mxPoint as="offset" />
          </mxGeometry>
        </mxCell>
      </root>
    </mxGraphModel>
  </diagram>
</mxfile>
